<?xml version="1.0" encoding="UTF-8"?>
<svg width="20px" height="20px" viewBox="0 0 20 20" version="1.1" xmlns="http://www.w3.org/2000/svg" xmlns:xlink="http://www.w3.org/1999/xlink">
    <!-- Generator: Sketch 48.2 (47327) - http://www.bohemiancoding.com/sketch -->
    <title>icn_browseproperties</title>
    <desc>Created with Sketch.</desc>
    <path d="M18.125,11.875 L18.125,1.875 L8.125,1.875 L8.125,11.875 L11.25,11.875 L15.3125,11.875 L18.125,11.875 Z M10.3125,13.75 L7.1875,13.75 C6.6696875,13.75 6.25,13.3303125 6.25,12.8125 L6.25,0.9375 C6.25,0.42 6.6696875,0 7.1875,0 L19.0625,0 C19.5803125,0 20,0.42 20,0.9375 L20,12.8125 C20,13.3303125 19.5803125,13.75 19.0625,13.75 L15.625,13.75 L10.3125,13.75 Z M0.9375,6.25 L5.3125,6.25 L5.3125,8.125 L1.875,8.125 L1.875,18.125 L5,18.125 L9.0625,18.125 L11.875,18.125 L11.875,14.6875 L13.75,14.6875 L13.75,19.0625 C13.75,19.5803125 13.3303125,20 12.8125,20 L9.375,20 L4.0625,20 L0.9375,20 C0.4196875,20 0,19.5803125 0,19.0625 L0,7.1875 C0,6.6696875 0.4196875,6.25 0.9375,6.25 Z" id="path-1"></path>
</svg>