<?xml version="1.0" encoding="UTF-8"?>
<svg width="68px" height="70px" viewBox="0 0 68 70" version="1.1" xmlns="http://www.w3.org/2000/svg" xmlns:xlink="http://www.w3.org/1999/xlink">
    <!-- Generator: Sketch 48.2 (47327) - http://www.bohemiancoding.com/sketch -->
    <title>illus_photos</title>
    <desc>Created with Sketch.</desc>
    <defs>
        <polygon id="path-1" points="0 0.359153846 68 0.359153846 68 69.2820692 0 69.2820692"></polygon>
        <polygon id="path-3" points="0 69.6408462 68 69.6408462 68 0.538461538 0 0.538461538"></polygon>
    </defs>
    <g id="ListProperty---Default" stroke="none" stroke-width="1" fill="none" fill-rule="evenodd" transform="translate(-566.000000, -444.000000)">
        <g id="Group-2-Copy" transform="translate(207.000000, 388.000000)">
            <g id="Group-7" transform="translate(0.000000, 30.000000)">
                <g id="!-Item/Illustration/Photos" transform="translate(358.000000, 26.000000)">
                    <g id="Page-1" transform="translate(1.000000, 0.000000)">
                        <g id="Group-3" transform="translate(0.000000, 0.179308)">
                            <mask id="mask-2" fill="white">
                                <use xlink:href="#path-1"></use>
                            </mask>
                            <g id="Clip-2"></g>
                            <path d="M68,34.8205308 C68,53.8529923 52.7775625,69.2820692 34,69.2820692 C15.2224375,69.2820692 0,53.8529923 0,34.8205308 C0,15.7880692 15.2224375,0.358992308 34,0.358992308 C52.7775625,0.358992308 68,15.7880692 68,34.8205308" id="Fill-1" fill="#FBB149" mask="url(#mask-2)"></path>
                        </g>
                        <path d="M64.7341406,58.1536846 L3.06982813,58.1536846 C2.77657813,58.1536846 2.53857813,57.9479923 2.53857813,57.6378385 C2.53857813,57.3276846 2.77657813,57.0767615 3.06982813,57.0767615 L64.7341406,57.0767615 C65.0279219,57.0767615 65.2653906,57.3276846 65.2653906,57.6378385 C65.2653906,57.9479923 65.0279219,58.1536846 64.7341406,58.1536846" id="Fill-4" fill="#233E49"></path>
                        <path d="M54.8194219,53.4061231 C54.8194219,55.7753538 52.9069219,57.7138154 50.5694219,57.7138154 L17.3662969,57.7138154 C15.0287969,57.7138154 13.1162969,55.7753538 13.1162969,53.4061231 L13.1162969,19.7522769 C13.1162969,17.3830462 15.0287969,15.4445846 17.3662969,15.4445846 L50.5694219,15.4445846 C52.9069219,15.4445846 54.8194219,17.3830462 54.8194219,19.7522769 L54.8194219,53.4061231 Z" id="Fill-6" fill="#EAEAEA"></path>
                        <path d="M13.1162969,45.9486462 L13.1162969,53.5409538 C13.1162969,55.9101846 15.0287969,57.8486462 17.3662969,57.8486462 L50.5694219,57.8486462 C52.9069219,57.8486462 54.8194219,55.9101846 54.8194219,53.5409538 L54.8194219,45.9486462 L13.1162969,45.9486462 Z" id="Fill-8" fill="#415E6D"></path>
                        <path d="M51,23.8717231 C51,24.4640308 50.521875,24.9486462 49.9375,24.9486462 L45.953125,24.9486462 C45.36875,24.9486462 44.890625,24.4640308 44.890625,23.8717231 L44.890625,22.2563385 C44.890625,21.6640308 45.36875,21.1794154 45.953125,21.1794154 L49.9375,21.1794154 C50.521875,21.1794154 51,21.6640308 51,22.2563385 L51,23.8717231 Z" id="Fill-10" fill="#D4D6D6"></path>
                        <mask id="mask-4" fill="white">
                            <use xlink:href="#path-3"></use>
                        </mask>
                        <g id="Clip-13"></g>
                        <polygon id="Fill-12" fill="#FBB149" mask="url(#mask-4)" points="30.8125 46.2624615 34.1120937 46.2624615 34.1120937 38.4100769 30.8125 38.4100769"></polygon>
                        <path d="M50.5694219,53.4871077 L17.3662969,53.4871077 C15.0287969,53.4871077 13.1162969,51.4678769 13.1162969,49.0986462 L13.1162969,53.4063385 C13.1162969,55.7755692 15.0287969,57.7140308 17.3662969,57.7140308 L50.5694219,57.7140308 C52.9069219,57.7140308 54.8194219,55.7755692 54.8194219,53.4063385 L54.8194219,49.0986462 C54.8194219,51.4678769 52.9069219,53.4871077 50.5694219,53.4871077" id="Fill-14" fill="#324D5B" mask="url(#mask-4)"></path>
                        <polygon id="Fill-15" fill="#FA886C" mask="url(#mask-4)" points="28.15625 46.2624615 30.8125 46.2624615 30.8125 38.4100769 28.15625 38.4100769"></polygon>
                        <polygon id="Fill-16" fill="#59DEA5" mask="url(#mask-4)" points="34 46.2624615 37.2209688 46.2624615 37.2209688 38.4100769 34 38.4100769"></polygon>
                        <polygon id="Fill-17" fill="#4AA1E8" mask="url(#mask-4)" points="37.1736875 46.2624615 40.330375 46.2624615 40.330375 38.4100769 37.1736875 38.4100769"></polygon>
                        <path d="M42.6006719,34.9896077 C42.6006719,39.8223 38.7358281,43.7396077 33.9678594,43.7396077 C29.1998906,43.7396077 25.3350469,39.8223 25.3350469,34.9896077 C25.3350469,30.1569154 29.1998906,26.2396077 33.9678594,26.2396077 C38.7358281,26.2396077 42.6006719,30.1569154 42.6006719,34.9896077" id="Fill-18" fill="#D4D6D6" mask="url(#mask-4)"></path>
                        <path d="M42.6006719,32.9703769 C42.6006719,37.8030692 38.7358281,41.7203769 33.9678594,41.7203769 C29.1998906,41.7203769 25.3350469,37.8030692 25.3350469,32.9703769 C25.3350469,28.1376846 29.1998906,24.2203769 33.9678594,24.2203769 C38.7358281,24.2203769 42.6006719,28.1376846 42.6006719,32.9703769" id="Fill-19" fill="#415E6D" mask="url(#mask-4)"></path>
                        <path d="M39.7752719,32.9703769 C39.7752719,36.2210692 37.1753344,38.8568385 33.9676469,38.8568385 C30.7604906,38.8568385 28.1605531,36.2210692 28.1605531,32.9703769 C28.1605531,29.7196846 30.7604906,27.0839154 33.9676469,27.0839154 C37.1753344,27.0839154 39.7752719,29.7196846 39.7752719,32.9703769" id="Fill-20" fill="#415E6D" mask="url(#mask-4)"></path>
                        <path d="M45.6875,21.5383 C45.39425,21.5383 45.15625,21.7800692 45.15625,22.0767615 L45.15625,23.6921462 C45.15625,23.9888385 45.39425,24.2306077 45.6875,24.2306077 L49.9375,24.2306077 C50.23075,24.2306077 50.46875,23.9888385 50.46875,23.6921462 L50.46875,22.0767615 C50.46875,21.7800692 50.23075,21.5383 49.9375,21.5383 L45.6875,21.5383 Z M49.9375,25.3075308 L45.6875,25.3075308 C44.8088125,25.3075308 44.09375,24.5827615 44.09375,23.6921462 L44.09375,22.0767615 C44.09375,21.1861462 44.8088125,20.4613769 45.6875,20.4613769 L49.9375,20.4613769 C50.8161875,20.4613769 51.53125,21.1861462 51.53125,22.0767615 L51.53125,23.6921462 C51.53125,24.5827615 50.8161875,25.3075308 49.9375,25.3075308 Z" id="Fill-21" fill="#233E49" mask="url(#mask-4)"></path>
                        <path d="M23.109375,24.1666923 C23.109375,25.5790769 21.9794063,26.7243846 20.5859375,26.7243846 C19.1924687,26.7243846 18.0625,25.5790769 18.0625,24.1666923 C18.0625,22.7543077 19.1924687,21.609 20.5859375,21.609 C21.9794063,21.609 23.109375,22.7543077 23.109375,24.1666923" id="Fill-22" fill="#415E6D" mask="url(#mask-4)"></path>
                        <path d="M17.53125,15.6173231 C15.480625,15.6173231 13.8125,17.3113231 13.8125,19.3935538 L13.8125,53.2983231 C13.8125,55.3805538 15.480625,57.0745538 17.53125,57.0745538 L50.46875,57.0745538 C52.5188438,57.0745538 54.1875,55.3805538 54.1875,53.2983231 L54.1875,19.3935538 C54.1875,17.3113231 52.5188438,15.6173231 50.46875,15.6173231 L17.53125,15.6173231 Z M50.46875,58.1536308 L17.53125,58.1536308 C14.8951875,58.1536308 12.75,55.9760923 12.75,53.2983231 L12.75,19.3935538 C12.75,16.7163231 14.8951875,14.5382462 17.53125,14.5382462 L50.46875,14.5382462 C53.1053438,14.5382462 55.25,16.7163231 55.25,19.3935538 L55.25,53.2983231 C55.25,55.9760923 53.1053438,58.1536308 50.46875,58.1536308 Z" id="Fill-23" fill="#233E49" mask="url(#mask-4)"></path>
                        <path d="M22.3125,31.7690692 C22.3125,32.8842231 21.2871875,33.9229154 20.1875,33.9229154 C19.0878125,33.9229154 18.0625,32.8842231 18.0625,31.7690692 C18.0625,30.6544538 19.0878125,29.6152231 20.1875,29.6152231 C21.2871875,29.6152231 22.3125,30.6544538 22.3125,31.7690692" id="Fill-24" fill="#FA886C" mask="url(#mask-4)"></path>
                        <path d="M54.71875,46.3075308 L13.546875,46.3075308 C13.253625,46.3075308 13.015625,46.0668385 13.015625,45.7690692 C13.015625,45.4713 13.253625,45.2306077 13.546875,45.2306077 L54.71875,45.2306077 C55.0125312,45.2306077 55.25,45.4713 55.25,45.7690692 C55.25,46.0668385 55.0125312,46.3075308 54.71875,46.3075308" id="Fill-25" fill="#233E49" mask="url(#mask-4)"></path>
                        <path d="M45.6247062,66.1409538 C45.6247062,67.9178769 44.1903312,68.8332615 42.4372062,68.8332615 L25.4372062,68.8332615 C23.6840812,68.8332615 22.2497062,67.9178769 22.2497062,66.1409538 L22.2497062,51.3941077 L45.6247062,51.3941077 L45.6247062,66.1409538 Z" id="Fill-26" fill="#EAEAEA" mask="url(#mask-4)"></path>
                        <polygon id="Fill-27" fill="#D4D6D6" mask="url(#mask-4)" points="22.64825 53.487 45.4255938 53.487 45.4255938 51.394 22.64825 51.394"></polygon>
                        <path d="M42.8543437,51.5131077 L42.8543437,63.8977231 C42.8543437,64.4900308 42.3762187,64.9746462 41.7918437,64.9746462 L26.2086875,64.9746462 C25.6243125,64.9746462 25.1461875,64.4900308 25.1461875,63.8977231 L25.1461875,51.5131077" id="Fill-28" fill="#415E6D" mask="url(#mask-4)"></path>
                        <path d="M22.7809562,51.9327308 L22.7809562,66.1411154 C22.7809562,67.5448846 23.898175,68.5641923 25.4372062,68.5641923 L42.4372062,68.5641923 C43.9762375,68.5641923 45.0934562,67.5448846 45.0934562,66.1411154 L45.0934562,51.9327308 L22.7809562,51.9327308 Z M42.4372062,69.6411154 L25.4372062,69.6411154 C23.3169875,69.6411154 21.7184562,68.1366538 21.7184562,66.1411154 L21.7184562,51.3942692 C21.7184562,51.0965 21.9564562,50.8558077 22.2497062,50.8558077 L45.6247062,50.8558077 C45.9184875,50.8558077 46.1559562,51.0965 46.1559562,51.3942692 L46.1559562,66.1411154 C46.1559562,68.1366538 44.5568937,69.6411154 42.4372062,69.6411154 Z" id="Fill-29" fill="#233E49" mask="url(#mask-4)"></path>
                        <polygon id="Fill-30" fill="#324D5B" mask="url(#mask-4)" points="24.9060625 53.3523846 42.9685625 53.3523846 42.9685625 51.394 24.9060625 51.394"></polygon>
                        <path d="M47.9100375,51.6921462 L20.1076,51.6921462 C19.81435,51.6921462 19.57635,51.4729923 19.57635,51.1676846 C19.57635,50.8623769 19.81435,50.6152231 20.1076,50.6152231 L47.9100375,50.6152231 C48.2038187,50.6152231 48.4412875,50.8623769 48.4412875,51.1676846 C48.4412875,51.4729923 48.2038187,51.6921462 47.9100375,51.6921462" id="Fill-31" fill="#233E49" mask="url(#mask-4)"></path>
                        <path d="M60.9251313,9.23967692 C60.7891313,9.23967692 60.6531313,9.18690769 60.5495375,9.08190769 C60.3418188,8.87136923 60.3418188,8.53052308 60.5495375,8.32052308 L63.9304125,4.89429231 C64.1381313,4.68375385 64.4744125,4.68375385 64.6816,4.89429231 C64.8893188,5.10429231 64.8893188,5.44567692 64.6816,5.65567692 L61.300725,9.08190769 C61.1971313,9.18690769 61.0611313,9.23967692 60.9251313,9.23967692" id="Fill-32" fill="#233E49" mask="url(#mask-4)"></path>
                        <path d="M58.1397344,7.60851538 C58.1052031,7.60851538 58.0701406,7.60528462 58.0350781,7.59774615 C57.7476719,7.53959231 57.5606719,7.25582308 57.6185781,6.96451538 L58.2959219,3.53074615 C58.3527656,3.2389 58.6337969,3.05097692 58.9212031,3.10859231 C59.2086094,3.16674615 59.3950781,3.45051538 59.3377031,3.74182308 L58.6598281,7.17559231 C58.6098906,7.43136154 58.3878281,7.60851538 58.1397344,7.60851538" id="Fill-33" fill="#233E49" mask="url(#mask-4)"></path>
                        <path d="M62.5349781,12.0645 C62.2868844,12.0645 62.0648219,11.8873462 62.0148844,11.6315769 C61.9569781,11.3402692 62.1439781,11.0565 62.4313844,10.9983462 L65.8191656,10.3112692 C66.1102906,10.2520385 66.3870719,10.4426538 66.4439156,10.7334231 C66.5018219,11.0252692 66.3148219,11.3090385 66.0274156,11.3671923 L62.6396344,12.0537308 C62.6045719,12.0612692 62.5689781,12.0645 62.5349781,12.0645" id="Fill-34" fill="#233E49" mask="url(#mask-4)"></path>
                        <path d="M33.9678594,24.7690692 C29.5175781,24.7690692 26.0315156,28.2927615 26.0315156,32.7905308 C26.0315156,37.3507615 29.5175781,40.9229154 33.9678594,40.9229154 C38.4542656,40.9229154 41.9690156,37.3507615 41.9690156,32.7905308 C41.9690156,28.2927615 38.4542656,24.7690692 33.9678594,24.7690692 M33.9678594,41.9998385 C28.9215156,41.9998385 24.9690156,37.9543769 24.9690156,32.7905308 C24.9690156,27.6886077 28.9215156,23.6921462 33.9678594,23.6921462 C39.0497969,23.6921462 43.0315156,27.6886077 43.0315156,32.7905308 C43.0315156,37.9543769 39.0497969,41.9998385 33.9678594,41.9998385" id="Fill-35" fill="#233E49" mask="url(#mask-4)"></path>
                        <path d="M34,27.4613769 C31.0706875,27.4613769 28.6875,29.8769154 28.6875,32.8459923 C28.6875,35.8150692 31.0706875,38.2306077 34,38.2306077 C36.9293125,38.2306077 39.3125,35.8150692 39.3125,32.8459923 C39.3125,29.8769154 36.9293125,27.4613769 34,27.4613769 M34,39.3075308 C30.4847188,39.3075308 27.625,36.4089923 27.625,32.8459923 C27.625,29.2829923 30.4847188,26.3844538 34,26.3844538 C37.5152813,26.3844538 40.375,29.2829923 40.375,32.8459923 C40.375,36.4089923 37.5152813,39.3075308 34,39.3075308" id="Fill-36" fill="#233E49" mask="url(#mask-4)"></path>
                        <path d="M34,37.1536846 C31.6566562,37.1536846 29.75,35.2211462 29.75,32.8459923 C29.75,32.2865308 29.8546563,31.7416077 30.06025,31.2268385 C30.168625,30.9576077 30.4709062,30.8278385 30.7370625,30.9366077 C31.0026875,31.0459154 31.13125,31.3528385 31.0234063,31.6220692 C30.86775,32.0113769 30.789125,32.4227615 30.789125,32.8459923 C30.789125,34.6406846 32.2293437,36.1004538 34,36.1004538 C35.7706563,36.1004538 37.210875,34.6406846 37.210875,32.8459923 C37.210875,31.0513 35.7706563,29.5915308 34,29.5915308 C33.6015625,29.5915308 33.2126875,29.6642231 32.8434687,29.8085308 C32.5757188,29.9129923 32.2755625,29.7778385 32.1719687,29.5069923 C32.0689062,29.2356077 32.20225,28.9308385 32.47,28.8258385 C32.9582188,28.6352231 33.473,28.5383 34,28.5383 C36.343875,28.5383 38.25,30.4708385 38.25,32.8459923 C38.25,35.2211462 36.343875,37.1536846 34,37.1536846" id="Fill-37" fill="#FFFFFF" mask="url(#mask-4)"></path>
                        <path d="M35.6316281,33.3844538 C35.3590969,33.3844538 35.1380969,33.1539923 35.1380969,32.8691462 C35.1380969,32.2143769 34.6270344,31.6813 34.0001594,31.6813 C33.3722219,31.6813 32.8616906,32.2143769 32.8616906,32.8691462 C32.8616906,33.1539923 32.6412219,33.3844538 32.3681594,33.3844538 C32.0961594,33.3844538 31.8751594,33.1539923 31.8751594,32.8691462 C31.8751594,31.6463 32.8282219,30.6512231 34.0001594,30.6512231 C35.1720969,30.6512231 36.1251594,31.6463 36.1251594,32.8691462 C36.1251594,33.1539923 35.9041594,33.3844538 35.6316281,33.3844538" id="Fill-38" fill="#FFFFFF" mask="url(#mask-4)"></path>
                        <path d="M27.3321219,30.6679692 C27.2630594,30.6679692 27.1929344,30.6545077 27.1254656,30.6265077 C26.8555906,30.5145077 26.7286219,30.2081231 26.8433719,29.9432 C28.0567469,27.1270462 30.8532469,25.3075846 33.9679656,25.3075846 C36.8207781,25.3075846 39.4329344,26.8411231 40.7839031,29.3099692 C40.9230906,29.5635846 40.8258719,29.8796615 40.5676844,30.0158923 C40.3068406,30.1526615 39.9864969,30.0568154 39.8478406,29.8032 C38.6822781,27.6735846 36.4292469,26.3500462 33.9679656,26.3500462 C31.2809031,26.3500462 28.8684969,27.9202 27.8214031,30.3492 C27.7358719,30.5484308 27.5393094,30.6679692 27.3321219,30.6679692" id="Fill-39" fill="#FFFFFF" mask="url(#mask-4)"></path>
                        <path d="M20.71875,22.0767615 C19.6265,22.0767615 18.59375,23.1235308 18.59375,24.2306077 C18.59375,25.3376846 19.6265,26.3844538 20.71875,26.3844538 C21.811,26.3844538 22.84375,25.3376846 22.84375,24.2306077 C22.84375,23.1235308 21.811,22.0767615 20.71875,22.0767615 M20.71875,27.4613769 C19.020875,27.4613769 17.53125,25.9515308 17.53125,24.2306077 C17.53125,22.5096846 19.020875,20.9998385 20.71875,20.9998385 C22.416625,20.9998385 23.90625,22.5096846 23.90625,24.2306077 C23.90625,25.9515308 22.416625,27.4613769 20.71875,27.4613769" id="Fill-40" fill="#233E49" mask="url(#mask-4)"></path>
                        <path d="M41.96875,65.3332615 L26.03125,65.3332615 C25.1525625,65.3332615 24.4375,64.6084923 24.4375,63.7178769 L24.4375,51.5131077 C24.4375,51.2153385 24.6755,50.9746462 24.96875,50.9746462 C25.262,50.9746462 25.5,51.2153385 25.5,51.5131077 L25.5,63.7178769 C25.5,64.0151077 25.7385312,64.2563385 26.03125,64.2563385 L41.96875,64.2563385 C42.262,64.2563385 42.5,64.0151077 42.5,63.7178769 L42.5,51.5131077 C42.5,51.2153385 42.7374688,50.9746462 43.03125,50.9746462 C43.3250312,50.9746462 43.5625,51.2153385 43.5625,51.5131077 L43.5625,63.7178769 C43.5625,64.6084923 42.8474375,65.3332615 41.96875,65.3332615" id="Fill-41" fill="#233E49" mask="url(#mask-4)"></path>
                        <path d="M52.59375,32.8468 C52.2999688,32.8468 52.0625,32.6055692 52.0625,32.3083385 L52.0625,21.1794154 C52.0625,19.6948769 50.8709063,18.4871077 49.40625,18.4871077 L33.203125,18.4871077 C32.909875,18.4871077 32.671875,18.2458769 32.671875,17.9486462 C32.671875,17.6514154 32.909875,17.4101846 33.203125,17.4101846 L49.40625,17.4101846 C51.4563438,17.4101846 53.125,19.1009538 53.125,21.1794154 L53.125,32.3083385 C53.125,32.6055692 52.8875313,32.8468 52.59375,32.8468" id="Fill-42" fill="#FFFFFF" mask="url(#mask-4)"></path>
                        <path d="M28.421875,18.4871077 L20.0100625,18.4871077 C19.7168125,18.4871077 19.4788125,18.2458769 19.4788125,17.9486462 C19.4788125,17.6514154 19.7168125,17.4101846 20.0100625,17.4101846 L28.421875,17.4101846 C28.715125,17.4101846 28.953125,17.6514154 28.953125,17.9486462 C28.953125,18.2458769 28.715125,18.4871077 28.421875,18.4871077" id="Fill-43" fill="#FFFFFF" mask="url(#mask-4)"></path>
                        <path d="M40.375,62.9998385 L34.5976562,62.9998385 C34.3044063,62.9998385 34.0664062,62.7575308 34.0664062,62.4581462 C34.0664062,62.1587615 34.3044063,61.9164538 34.5976562,61.9164538 L39.84375,61.9164538 L39.84375,55.4646077 C39.84375,55.1652231 40.0812188,54.9229154 40.375,54.9229154 C40.6687812,54.9229154 40.90625,55.1652231 40.90625,55.4646077 L40.90625,62.4581462 C40.90625,62.7575308 40.6687812,62.9998385 40.375,62.9998385" id="Fill-44" fill="#FFFFFF" mask="url(#mask-4)"></path>
                        <path d="M31.9414062,62.9998385 L28.1913125,62.9998385 C27.8980625,62.9998385 27.6600625,62.7591462 27.6600625,62.4613769 C27.6600625,62.1636077 27.8980625,61.9229154 28.1913125,61.9229154 L31.9414062,61.9229154 C32.2346563,61.9229154 32.4726562,62.1636077 32.4726562,62.4613769 C32.4726562,62.7591462 32.2346563,62.9998385 31.9414062,62.9998385" id="Fill-45" fill="#FFFFFF" mask="url(#mask-4)"></path>
                        <path d="M60.0027219,39.2205154 C59.3715969,39.2205154 58.8578781,39.7374385 58.8578781,40.3728231 C58.8578781,41.0082077 59.3715969,41.5245923 60.0027219,41.5245923 C60.6343781,41.5245923 61.1486281,41.0082077 61.1486281,40.3728231 C61.1486281,39.7374385 60.6343781,39.2205154 60.0027219,39.2205154 M60.0027219,42.5385154 C58.8159094,42.5385154 57.8500969,41.5671308 57.8500969,40.3728231 C57.8500969,39.1785154 58.8159094,38.2065923 60.0027219,38.2065923 C61.1900656,38.2065923 62.1564094,39.1785154 62.1564094,40.3728231 C62.1564094,41.5671308 61.1900656,42.5385154 60.0027219,42.5385154" id="Fill-46" fill="#FFFFFF" mask="url(#mask-4)"></path>
                        <path d="M24.9682188,9.5578 C24.3455938,9.5578 23.8387813,10.0720308 23.8387813,10.7036462 C23.8387813,11.3352615 24.3455938,11.8489538 24.9682188,11.8489538 C25.591375,11.8489538 26.0987187,11.3352615 26.0987187,10.7036462 C26.0987187,10.0720308 25.591375,9.5578 24.9682188,9.5578 M24.9682188,12.8574923 C23.7968125,12.8574923 22.84375,11.8914923 22.84375,10.7036462 C22.84375,9.5158 23.7968125,8.5498 24.9682188,8.5498 C26.1401563,8.5498 27.09375,9.5158 27.09375,10.7036462 C27.09375,11.8914923 26.1401563,12.8574923 24.9682188,12.8574923" id="Fill-47" fill="#FFFFFF" mask="url(#mask-4)"></path>
                        <path d="M10.2281031,40.4073385 C10.2281031,40.1968 9.99169687,39.9884154 9.70269687,39.9437231 L8.71457187,39.7918769 C8.42557187,39.7471846 8.15357187,39.4714923 8.11000937,39.1785692 L7.96072812,38.1786462 C7.91716562,37.8857231 7.71157187,37.6461077 7.50385312,37.6461077 C7.29613437,37.6461077 7.09054062,37.8857231 7.04697812,38.1781077 L6.89716562,39.1791077 C6.85360312,39.4714923 6.58160312,39.7471846 6.29260312,39.7918769 L5.30394687,39.9437231 C5.01494687,39.9884154 4.77854062,40.1968 4.77854062,40.4073385 C4.77854062,40.6178769 5.01494687,40.8262615 5.30394687,40.8704154 L6.29260312,41.0222615 C6.58160312,41.0664154 6.85360312,41.3421077 6.89716562,41.6344923 L7.04697812,42.6360308 C7.09054062,42.9284154 7.29613437,43.1680308 7.50385312,43.1680308 C7.71157187,43.1680308 7.91504062,42.9284154 7.95541562,42.6349538 L8.11532187,41.4794154 C8.15622812,41.1859538 8.42769687,40.9280308 8.71882187,40.9059538 L9.69844687,40.8305692 C9.98957187,40.8084923 10.2281031,40.6178769 10.2281031,40.4073385" id="Fill-48" fill="#FFFFFF" mask="url(#mask-4)"></path>
                        <path d="M44.09375,8.86366923 C44.09375,8.65313077 43.8573438,8.44474615 43.568875,8.40005385 L42.5796875,8.24820769 C42.2912187,8.20351538 42.0192188,7.92782308 41.9756563,7.6349 L41.826375,6.63497692 C41.7828125,6.34205385 41.5772188,6.10243846 41.3695,6.10243846 C41.1617812,6.10243846 40.9561875,6.34205385 40.912625,6.63497692 L40.7628125,7.6349 C40.71925,7.92782308 40.44725,8.20351538 40.1587813,8.24820769 L39.1690625,8.40005385 C38.8805937,8.44474615 38.6441875,8.65313077 38.6441875,8.86366923 C38.6441875,9.07420769 38.8805937,9.28259231 39.1695937,9.32674615 L40.15825,9.47859231 C40.44725,9.52274615 40.71925,9.79843846 40.7628125,10.0913615 L40.912625,11.0918231 C40.9561875,11.3847462 41.1617812,11.6243615 41.3695,11.6243615 C41.5772188,11.6243615 41.7806875,11.3842077 41.8210625,11.0907462 L41.9809687,9.93574615 C42.021875,9.64282308 42.2928125,9.38436154 42.5844687,9.36228462 L43.5640937,9.2869 C43.85575,9.26482308 44.09375,9.07420769 44.09375,8.86366923" id="Fill-49" fill="#FFFFFF" mask="url(#mask-4)"></path>
                    </g>
                </g>
            </g>
        </g>
    </g>
</svg>