<?xml version="1.0" encoding="UTF-8"?>
<svg width="70px" height="70px" viewBox="0 0 70 70" version="1.1" xmlns="http://www.w3.org/2000/svg" xmlns:xlink="http://www.w3.org/1999/xlink">
    <!-- Generator: Sketch 48.2 (47327) - http://www.bohemiancoding.com/sketch -->
    <title>illus_disclosures</title>
    <desc>Created with Sketch.</desc>
    <defs></defs>
    <g id="ListProperty---Default" stroke="none" stroke-width="1" fill="none" fill-rule="evenodd" transform="translate(-561.000000, -748.000000)">
        <g id="Group-2-Copy-2" transform="translate(206.000000, 594.000000)">
            <g id="illus_disclosures" transform="translate(355.000000, 154.000000)">
                <path d="M69.9989063,35 C69.9989063,54.3298438 54.3298438,70 34.9989063,70 C15.6696094,70 0,54.3298438 0,35 C0,15.6701562 15.6696094,0 34.9989063,0 C54.3298438,0 69.9989063,15.6701562 69.9989063,35" id="Fill-1" fill="#FA886C"></path>
                <path d="M63.2548437,47.3925156 C63.2548437,47.1786875 63.0114844,46.9670469 62.7145313,46.9216563 L61.69625,46.7674375 C61.3992969,46.7220469 61.1192969,46.4420469 61.0744531,46.1450938 L60.9202344,45.129 C60.8753906,44.8315 60.66375,44.5881406 60.4499219,44.5881406 C60.2360938,44.5881406 60.0244531,44.8315 59.9796094,45.129 L59.8253906,46.1450938 C59.7805469,46.4420469 59.5005469,46.7220469 59.2035938,46.7674375 L58.1853125,46.9216563 C57.8883594,46.9670469 57.645,47.1786875 57.645,47.3925156 C57.645,47.6063438 57.8883594,47.8179844 58.1853125,47.8628281 L59.2035938,48.0170469 C59.5005469,48.0618906 59.7805469,48.3418906 59.8253906,48.6388438 L59.9796094,49.6560313 C60.0244531,49.9529844 60.2360938,50.1963438 60.4499219,50.1963438 C60.66375,50.1963438 60.8732031,49.9529844 60.9153125,49.6549375 L61.079375,48.4818906 C61.1220312,48.1832969 61.4014844,47.9213437 61.7011719,47.8989219 L62.7096094,47.8223594 C63.0092969,47.7999375 63.2548437,47.6063438 63.2548437,47.3925156" id="Fill-3" fill="#FFFFFF"></path>
                <path d="M13.5057891,28.6834297 C13.5057891,28.4696016 13.2624297,28.2579609 12.9654766,28.2125703 L11.9471953,28.0583516 C11.6502422,28.0129609 11.3702422,27.7329609 11.3253984,27.4360078 L11.1711797,26.4199141 C11.1263359,26.1224141 10.9146953,25.8790547 10.7008672,25.8790547 C10.4870391,25.8790547 10.2753984,26.1224141 10.2305547,26.4199141 L10.0763359,27.4360078 C10.0314922,27.7329609 9.75149219,28.0129609 9.45453906,28.0583516 L8.43625781,28.2125703 C8.13930469,28.2579609 7.89594531,28.4696016 7.89594531,28.6834297 C7.89594531,28.8972578 8.13930469,29.1088984 8.43625781,29.1537422 L9.45453906,29.3079609 C9.75149219,29.3528047 10.0314922,29.6328047 10.0763359,29.9297578 L10.2305547,30.9469453 C10.2753984,31.2438984 10.4870391,31.4872578 10.7008672,31.4872578 C10.9146953,31.4872578 11.1241484,31.2438984 11.1662578,30.9458516 L11.3303203,29.7722578 C11.3729766,29.4742109 11.6524297,29.2122578 11.9521172,29.1898359 L12.9605547,29.1132734 C13.2602422,29.0908516 13.5057891,28.8972578 13.5057891,28.6834297" id="Fill-5" fill="#FFFFFF"></path>
                <path d="M40.4596719,7.90217969 C40.4596719,7.68835156 40.2163125,7.47671094 39.9193594,7.43132031 L38.9010781,7.27710156 C38.604125,7.23171094 38.324125,6.95171094 38.2792813,6.65475781 L38.1250625,5.63866406 C38.0802188,5.34116406 37.8685781,5.09780469 37.65475,5.09780469 C37.4409219,5.09780469 37.2292813,5.34116406 37.1844375,5.63866406 L37.0302188,6.65475781 C36.985375,6.95171094 36.705375,7.23171094 36.4084219,7.27710156 L35.3901406,7.43132031 C35.0931875,7.47671094 34.8498281,7.68835156 34.8498281,7.90217969 C34.8498281,8.11600781 35.0931875,8.32764844 35.3901406,8.37249219 L36.4084219,8.52671094 C36.705375,8.57155469 36.985375,8.85155469 37.0302188,9.14850781 L37.1844375,10.1656953 C37.2292813,10.4626484 37.4409219,10.7060078 37.65475,10.7060078 C37.8685781,10.7060078 38.0780313,10.4626484 38.1201406,10.1646016 L38.2842031,8.99100781 C38.3268594,8.69296094 38.6063125,8.43100781 38.906,8.40858594 L39.9144375,8.33202344 C40.214125,8.30960156 40.4596719,8.11600781 40.4596719,7.90217969" id="Fill-7" fill="#FFFFFF"></path>
                <path d="M10.9372266,41.4928281 C10.2957422,41.4928281 9.77402344,42.0150937 9.77402344,42.6565781 C9.77402344,43.2980625 10.2957422,43.8197812 10.9372266,43.8197812 C11.5787109,43.8197812 12.1009766,43.2980625 12.1009766,42.6565781 C12.1009766,42.0150937 11.5787109,41.4928281 10.9372266,41.4928281 M10.9372266,44.8435312 C9.73082031,44.8435312 8.74972656,43.8624375 8.74972656,42.6565781 C8.74972656,41.4501719 9.73082031,40.4685312 10.9372266,40.4685312 C12.1436328,40.4685312 13.1247266,41.4501719 13.1247266,42.6565781 C13.1247266,43.8624375 12.1436328,44.8435312 10.9372266,44.8435312" id="Fill-9" fill="#FFFFFF"></path>
                <path d="M60.1383672,30.5595937 C59.4919609,30.5595937 58.9658672,31.0835 58.9658672,31.7282656 C58.9658672,32.3724844 59.4919609,32.8958437 60.1383672,32.8958437 C60.7853203,32.8958437 61.3119609,32.3724844 61.3119609,31.7282656 C61.3119609,31.0835 60.7853203,30.5595937 60.1383672,30.5595937 M60.1383672,33.9239688 C58.9226641,33.9239688 57.9339141,32.9395938 57.9339141,31.7282656 C57.9339141,30.5169375 58.9226641,29.5314687 60.1383672,29.5314687 C61.3546172,29.5314687 62.3439141,30.5169375 62.3439141,31.7282656 C62.3439141,32.9395938 61.3546172,33.9239688 60.1383672,33.9239688" id="Fill-11" fill="#FFFFFF"></path>
                <path d="M31.7190234,62.2740781 C31.0775391,62.2740781 30.5558203,62.7957969 30.5558203,63.4378281 C30.5558203,64.0793125 31.0775391,64.6010313 31.7190234,64.6010313 C32.3610547,64.6010313 32.8833203,64.0793125 32.8833203,63.4378281 C32.8833203,62.7957969 32.3610547,62.2740781 31.7190234,62.2740781 M31.7190234,65.6247812 C30.5126172,65.6247812 29.5315234,64.6436875 29.5315234,63.4378281 C29.5315234,62.2314219 30.5126172,61.2497812 31.7190234,61.2497812 C32.9259766,61.2497812 33.9076172,62.2314219 33.9076172,63.4378281 C33.9076172,64.6436875 32.9259766,65.6247812 31.7190234,65.6247812" id="Fill-13" fill="#FFFFFF"></path>
                <path d="M51.3095625,55.5478437 C51.3095625,56.7509687 50.3251875,57.7353437 49.1220625,57.7353437 L20.2782344,57.7353437 C19.0751094,57.7353437 18.0907344,56.7509687 18.0907344,55.5478437 L18.0907344,18.5244062 C18.0907344,17.3212812 19.0751094,16.3369062 20.2782344,16.3369062 L49.1220625,16.3369062 C50.3251875,16.3369062 51.3095625,17.3212812 51.3095625,18.5244062 L51.3095625,55.5478437 Z" id="Fill-15" fill="#D4D6D6"></path>
                <path d="M20.2455859,16.9400547 C19.3372266,16.9400547 18.5983984,17.6794297 18.5983984,18.5877891 L18.5983984,55.7692734 C18.5983984,56.6781797 19.3372266,57.4170078 20.2455859,57.4170078 L49.2075391,57.4170078 C50.1158984,57.4170078 50.8547266,56.6781797 50.8547266,55.7692734 L50.8547266,18.5877891 C50.8547266,17.6794297 50.1158984,16.9400547 49.2075391,16.9400547 L20.2455859,16.9400547 Z M49.2075391,58.5156797 L20.2455859,58.5156797 C18.7318359,58.5156797 17.4997266,57.2835703 17.4997266,55.7692734 L17.4997266,18.5877891 C17.4997266,17.0734922 18.7318359,15.8413828 20.2455859,15.8413828 L49.2075391,15.8413828 C50.7212891,15.8413828 51.9528516,17.0734922 51.9528516,18.5877891 L51.9528516,55.7692734 C51.9528516,57.2835703 50.7212891,58.5156797 49.2075391,58.5156797 Z" id="Fill-17" fill="#8221DC"></path>
                <path d="M53.1648906,53.7937422 C53.1681719,54.9968672 52.1870781,55.9812422 50.9839531,55.9812422 L22.1379375,55.9812422 C20.9342656,55.9812422 19.9504375,54.9968672 19.9504375,53.7937422 L19.9504375,16.7708516 C19.9504375,15.5677266 20.9342656,14.5866328 22.1379375,14.5899141 L50.8581719,14.6823359 C52.0612969,14.6861641 53.0489531,15.6738203 53.0522344,16.8769453 L53.1648906,53.7937422 Z" id="Fill-19" fill="#EAEAEA"></path>
                <path d="M22.421875,15.3125 C21.5173437,15.3125 20.78125,16.0485938 20.78125,16.953125 L20.78125,53.59375 C20.78125,54.4982812 21.5173437,55.234375 22.421875,55.234375 L50.859375,55.234375 C51.7639062,55.234375 52.5,54.4982812 52.5,53.59375 L52.5,16.953125 C52.5,16.0485938 51.7639062,15.3125 50.859375,15.3125 L22.421875,15.3125 Z M50.859375,56.328125 L22.421875,56.328125 C20.9141406,56.328125 19.6875,55.1014844 19.6875,53.59375 L19.6875,16.953125 C19.6875,15.4453906 20.9141406,14.21875 22.421875,14.21875 L50.859375,14.21875 C52.3671094,14.21875 53.59375,15.4453906 53.59375,16.953125 L53.59375,53.59375 C53.59375,55.1014844 52.3671094,56.328125 50.859375,56.328125 Z" id="Fill-21" fill="#8221DC"></path>
                <path d="M26.3050156,21.875 C23.6548594,21.875 21.8736875,20.3667188 21.8736875,18.1217969 L21.8736875,12.6016406 C21.8736875,10.71 23.8041562,9.296875 25.5300937,9.296875 C27.2686094,9.296875 28.4361875,10.6252344 28.4361875,12.6016406 L28.4361875,14.7880469 C28.4361875,15.0888281 28.1917344,15.3332812 27.8893125,15.3332812 C27.5874375,15.3332812 27.3424375,15.0888281 27.3424375,14.7880469 L27.3424375,12.6016406 C27.3424375,11.5314062 26.8666562,10.3873437 25.5300937,10.3873437 C24.3455625,10.3873437 22.9674375,11.3547656 22.9674375,12.6016406 L22.9674375,18.1217969 C22.9674375,20.0850781 24.6917344,20.7845313 26.3050156,20.7845313 C28.0632188,20.7845313 28.9830625,19.2117187 28.9830625,17.6585938 L28.9830625,12.1389844 C28.9830625,11.8376563 29.2280625,11.59375 29.5299375,11.59375 C29.8323594,11.59375 30.0768125,11.8376563 30.0768125,12.1389844 L30.0768125,17.6585938 C30.0768125,20.1014844 28.490875,21.875 26.3050156,21.875" id="Fill-23" fill="#59DEA5"></path>
                <path d="M34.4595234,28.984375 L24.6113984,28.984375 C24.3084297,28.984375 24.0623359,28.739375 24.0623359,28.4375 C24.0623359,28.135625 24.3084297,27.890625 24.6113984,27.890625 L34.4595234,27.890625 C34.7624922,27.890625 35.0085859,28.135625 35.0085859,28.4375 C35.0085859,28.739375 34.7624922,28.984375 34.4595234,28.984375" id="Fill-25" fill="#ADADAD"></path>
                <path d="M47.2804062,28.984375 L37.2020469,28.984375 C36.8919688,28.984375 36.6404062,28.739375 36.6404062,28.4375 C36.6404062,28.135625 36.8919688,27.890625 37.2020469,27.890625 L47.2804062,27.890625 C47.5910313,27.890625 47.8420469,28.135625 47.8420469,28.4375 C47.8420469,28.739375 47.5910313,28.984375 47.2804062,28.984375" id="Fill-27" fill="#ADADAD"></path>
                <path d="M35.2184219,32.8125 L24.6112344,32.8125 C24.3082656,32.8125 24.0627187,32.5675 24.0627187,32.265625 C24.0627187,31.96375 24.3082656,31.71875 24.6112344,31.71875 L35.2184219,31.71875 C35.5219375,31.71875 35.7674844,31.96375 35.7674844,32.265625 C35.7674844,32.5675 35.5219375,32.8125 35.2184219,32.8125" id="Fill-29" fill="#ADADAD"></path>
                <path d="M48.6801328,32.8125 L38.2731016,32.8125 C37.9750547,32.8125 37.7344297,32.5675 37.7344297,32.265625 C37.7344297,31.96375 37.9750547,31.71875 38.2731016,31.71875 L48.6801328,31.71875 C48.9776328,31.71875 49.2188047,31.96375 49.2188047,32.265625 C49.2188047,32.5675 48.9776328,32.8125 48.6801328,32.8125" id="Fill-31" fill="#ADADAD"></path>
                <path d="M30.0530234,36.640625 L24.6345859,36.640625 C24.3184922,36.640625 24.0625547,36.3961719 24.0625547,36.09375 C24.0625547,35.7913281 24.3184922,35.546875 24.6345859,35.546875 L30.0530234,35.546875 C30.3691172,35.546875 30.6250547,35.7913281 30.6250547,36.09375 C30.6250547,36.3961719 30.3691172,36.640625 30.0530234,36.640625" id="Fill-33" fill="#ADADAD"></path>
                <path d="M34.4515391,40.46875 L24.6110703,40.46875 C24.3081016,40.46875 24.0625547,40.2242969 24.0625547,39.921875 C24.0625547,39.6194531 24.3081016,39.375 24.6110703,39.375 L34.4515391,39.375 C34.7545078,39.375 35.0000547,39.6194531 35.0000547,39.921875 C35.0000547,40.2242969 34.7545078,40.46875 34.4515391,40.46875" id="Fill-35" fill="#ADADAD"></path>
                <path d="M47.5490313,40.46875 L37.216375,40.46875 C36.8980938,40.46875 36.6405156,40.2242969 36.6405156,39.921875 C36.6405156,39.6194531 36.8980938,39.375 37.216375,39.375 L47.5490313,39.375 C47.8673125,39.375 48.1248906,39.6194531 48.1248906,39.921875 C48.1248906,40.2242969 47.8673125,40.46875 47.5490313,40.46875" id="Fill-37" fill="#ADADAD"></path>
                <path d="M37.7092734,36.640625 L32.2908359,36.640625 C31.9747422,36.640625 31.7188047,36.3961719 31.7188047,36.09375 C31.7188047,35.7913281 31.9747422,35.546875 32.2908359,35.546875 L37.7092734,35.546875 C38.0253672,35.546875 38.2813047,35.7913281 38.2813047,36.09375 C38.2813047,36.3961719 38.0253672,36.640625 37.7092734,36.640625" id="Fill-39" fill="#ADADAD"></path>
                <path d="M45.3655234,36.640625 L39.9470859,36.640625 C39.6309922,36.640625 39.3750547,36.3961719 39.3750547,36.09375 C39.3750547,35.7913281 39.6309922,35.546875 39.9470859,35.546875 L45.3655234,35.546875 C45.6816172,35.546875 45.9375547,35.7913281 45.9375547,36.09375 C45.9375547,36.3961719 45.6816172,36.640625 45.3655234,36.640625" id="Fill-41" fill="#ADADAD"></path>
                <path d="M30.0530234,44.296875 L24.6345859,44.296875 C24.3184922,44.296875 24.0625547,44.0524219 24.0625547,43.75 C24.0625547,43.4475781 24.3184922,43.203125 24.6345859,43.203125 L30.0530234,43.203125 C30.3691172,43.203125 30.6250547,43.4475781 30.6250547,43.75 C30.6250547,44.0524219 30.3691172,44.296875 30.0530234,44.296875" id="Fill-43" fill="#ADADAD"></path>
                <path d="M34.4595234,48.125 L24.6113984,48.125 C24.3084297,48.125 24.0623359,47.8805469 24.0623359,47.578125 C24.0623359,47.2757031 24.3084297,47.03125 24.6113984,47.03125 L34.4595234,47.03125 C34.7624922,47.03125 35.0085859,47.2757031 35.0085859,47.578125 C35.0085859,47.8805469 34.7624922,48.125 34.4595234,48.125" id="Fill-45" fill="#ADADAD"></path>
                <path d="M47.5490313,48.125 L37.216375,48.125 C36.8980938,48.125 36.6405156,47.8805469 36.6405156,47.578125 C36.6405156,47.2757031 36.8980938,47.03125 37.216375,47.03125 L47.5490313,47.03125 C47.8673125,47.03125 48.1248906,47.2757031 48.1248906,47.578125 C48.1248906,47.8805469 47.8673125,48.125 47.5490313,48.125" id="Fill-47" fill="#ADADAD"></path>
                <path d="M37.7153984,44.296875 L32.3538359,44.296875 C32.0415703,44.296875 31.7878203,44.0524219 31.7878203,43.75 C31.7878203,43.4475781 32.0415703,43.203125 32.3538359,43.203125 L37.7153984,43.203125 C38.0282109,43.203125 38.2814141,43.4475781 38.2814141,43.75 C38.2814141,44.0524219 38.0282109,44.296875 37.7153984,44.296875" id="Fill-49" fill="#ADADAD"></path>
                <path d="M45.3689688,44.296875 L39.9833438,44.296875 C39.6694375,44.296875 39.4151406,44.0524219 39.4151406,43.75 C39.4151406,43.4475781 39.6694375,43.203125 39.9833438,43.203125 L45.3689688,43.203125 C45.6834219,43.203125 45.9377188,43.4475781 45.9377188,43.75 C45.9377188,44.0524219 45.6834219,44.296875 45.3689688,44.296875" id="Fill-51" fill="#ADADAD"></path>
                <path d="M48.125,21.328125 C48.125,22.5361719 47.1548437,23.515625 45.9577344,23.515625 C44.7611719,23.515625 43.7910156,22.5361719 43.7910156,21.328125 C43.7910156,20.1200781 44.7611719,19.140625 45.9577344,19.140625 C47.1548437,19.140625 48.125,20.1200781 48.125,21.328125" id="Fill-53" fill="#D4D6D6"></path>
                <path d="M41.5625,21.328125 C41.5625,22.5361719 40.5896094,23.515625 39.3892187,23.515625 C38.189375,23.515625 37.2164844,22.5361719 37.2164844,21.328125 C37.2164844,20.1200781 38.189375,19.140625 39.3892187,19.140625 C40.5896094,19.140625 41.5625,20.1200781 41.5625,21.328125" id="Fill-55" fill="#D4D6D6"></path>
                <path d="M49.354375,17.5 L33.2215625,17.5 C32.9196875,17.5 32.6746875,17.255 32.6746875,16.953125 C32.6746875,16.65125 32.9196875,16.40625 33.2215625,16.40625 L49.354375,16.40625 C49.6567969,16.40625 49.90125,16.65125 49.90125,16.953125 C49.90125,17.255 49.6567969,17.5 49.354375,17.5" id="Fill-57" fill="#FFFFFF"></path>
            </g>
        </g>
    </g>
</svg>