<?xml version="1.0" encoding="UTF-8"?>
<svg width="20px" height="16px" viewBox="0 0 20 16" version="1.1" xmlns="http://www.w3.org/2000/svg" xmlns:xlink="http://www.w3.org/1999/xlink">
    <!-- Generator: Sketch 48.2 (47327) - http://www.bohemiancoding.com/sketch -->
    <title>icn_watchlists</title>
    <desc>Created with Sketch.</desc>
    <path d="M11.9933186,13.3539352 C11.4453186,13.8209352 10.7413186,14.0779352 10.0103186,14.0779352 C9.28031856,14.0779352 8.57531856,13.8219352 8.00431856,13.3399352 C4.41031856,10.3119352 2.12231856,8.70493522 2.00331856,5.40893522 C1.87831856,1.91993522 5.69931856,0.645935221 8.04031856,3.51093522 C8.51431856,4.08993522 9.22631856,4.42193522 9.99431856,4.42193522 C10.7693186,4.42193522 11.4863186,4.08593522 11.9613186,3.49993522 C14.2523186,0.679935221 18.1743186,1.88093522 17.9953186,5.50993522 C17.8353186,8.73893522 15.4593186,10.4049352 11.9933186,13.3539352 M10.3873186,2.31093522 C10.2893186,2.43193522 10.1413186,2.49293522 9.99431856,2.49293522 C9.85031856,2.49293522 9.70731856,2.43493522 9.61131856,2.31693522 C6.06831856,-2.01806478 -0.187681436,0.140935221 0.00431856424,5.47493522 C0.158318564,9.71993522 3.16531856,11.8249352 6.70731856,14.8089352 C7.65431856,15.6069352 8.83231856,16.0059352 10.0103186,16.0059352 C11.1913186,16.0059352 12.3713186,15.6049352 13.3163186,14.8009352 C16.8193186,11.8199352 19.7883186,9.72993522 19.9933186,5.60193522 C20.2623186,0.147935221 13.9213186,-2.04206478 10.3873186,2.31093522" id="watchlists-path-1"></path>
</svg>